<?xml version='1.0' encoding='ASCII' standalone='yes'?>
<svg xmlns="http://www.w3.org/2000/svg" xmlns:ev="http://www.w3.org/2001/xml-events" xmlns:xlink="http://www.w3.org/1999/xlink" baseProfile="full" height="1200" version="1.1" width="1416">
  <defs/>
  <rect fill="#ceecb2" height="1203.14" width="153.14" x="0" y="0"/>
  <rect fill="#909092" height="53.14" width="19.14" x="150" y="0"/>
  <rect fill="#a5a5a7" height="8.14" width="19.14" x="150" y="50.0"/>
  <rect fill="#909092" height="103.14" width="19.14" x="150" y="55.0"/>
  <rect fill="#a5a5a7" height="8.14" width="19.14" x="150" y="155.0"/>
  <rect fill="#909092" height="103.14" width="19.14" x="150" y="160.0"/>
  <rect fill="#a5a5a7" height="8.14" width="19.14" x="150" y="260.0"/>
  <rect fill="#909092" height="103.14" width="19.14" x="150" y="265.0"/>
  <rect fill="#a5a5a7" height="8.14" width="19.14" x="150" y="365.0"/>
  <rect fill="#909092" height="103.14" width="19.14" x="150" y="370.0"/>
  <rect fill="#a5a5a7" height="8.14" width="19.14" x="150" y="470.0"/>
  <rect fill="#909092" height="103.14" width="19.14" x="150" y="475.0"/>
  <rect fill="#a5a5a7" height="8.14" width="19.14" x="150" y="575.0"/>
  <rect fill="#909092" height="103.14" width="19.14" x="150" y="580.0"/>
  <rect fill="#a5a5a7" height="8.14" width="19.14" x="150" y="680.0"/>
  <rect fill="#909092" height="103.14" width="19.14" x="150" y="685.0"/>
  <rect fill="#a5a5a7" height="8.14" width="19.14" x="150" y="785.0"/>
  <rect fill="#909092" height="103.14" width="19.14" x="150" y="790.0"/>
  <rect fill="#a5a5a7" height="8.14" width="19.14" x="150" y="890.0"/>
  <rect fill="#909092" height="103.14" width="19.14" x="150" y="895.0"/>
  <rect fill="#a5a5a7" height="8.14" width="19.14" x="150" y="995.0"/>
  <rect fill="#909092" height="103.14" width="19.14" x="150" y="1000.0"/>
  <rect fill="#a5a5a7" height="8.14" width="19.14" x="150" y="1100.0"/>
  <rect fill="#909092" height="103.14" width="19.14" x="150" y="1105.0"/>
  <rect fill="#68676e" height="1203.14" width="27.14" x="166" y="0"/>
  <rect fill="#dce0df" height="1203.14" width="15.14" x="190" y="0"/>
  <rect fill="#68676e" height="1203.14" width="303.14" x="202" y="0"/>
  <rect fill="#dce0df" height="103.14" width="15.14" x="502" y="0"/>
  <rect fill="#68676e" height="403.14" width="15.14" x="502" y="100.0"/>
  <rect fill="#dce0df" height="203.14" width="15.14" x="502" y="500.0"/>
  <rect fill="#68676e" height="403.14" width="15.14" x="502" y="700.0"/>
  <rect fill="#dce0df" height="203.14" width="15.14" x="502" y="1100.0"/>
  <rect fill="#68676e" height="1203.14" width="303.14" x="514" y="0"/>
  <rect fill="#68676e" height="1203.14" width="27.14" x="814" y="0"/>
  <rect fill="#dce0df" height="1203.14" width="15.14" x="838" y="0"/>
  <rect fill="#909092" height="53.14" width="19.14" x="850" y="0"/>
  <rect fill="#a5a5a7" height="8.14" width="19.14" x="850" y="50.0"/>
  <rect fill="#909092" height="103.14" width="19.14" x="850" y="55.0"/>
  <rect fill="#a5a5a7" height="8.14" width="19.14" x="850" y="155.0"/>
  <rect fill="#909092" height="103.14" width="19.14" x="850" y="160.0"/>
  <rect fill="#a5a5a7" height="8.14" width="19.14" x="850" y="260.0"/>
  <rect fill="#909092" height="103.14" width="19.14" x="850" y="265.0"/>
  <rect fill="#a5a5a7" height="8.14" width="19.14" x="850" y="365.0"/>
  <rect fill="#909092" height="103.14" width="19.14" x="850" y="370.0"/>
  <rect fill="#a5a5a7" height="8.14" width="19.14" x="850" y="470.0"/>
  <rect fill="#909092" height="103.14" width="19.14" x="850" y="475.0"/>
  <rect fill="#a5a5a7" height="8.14" width="19.14" x="850" y="575.0"/>
  <rect fill="#909092" height="103.14" width="19.14" x="850" y="580.0"/>
  <rect fill="#a5a5a7" height="8.14" width="19.14" x="850" y="680.0"/>
  <rect fill="#909092" height="103.14" width="19.14" x="850" y="685.0"/>
  <rect fill="#a5a5a7" height="8.14" width="19.14" x="850" y="785.0"/>
  <rect fill="#909092" height="103.14" width="19.14" x="850" y="790.0"/>
  <rect fill="#a5a5a7" height="8.14" width="19.14" x="850" y="890.0"/>
  <rect fill="#909092" height="103.14" width="19.14" x="850" y="895.0"/>
  <rect fill="#a5a5a7" height="8.14" width="19.14" x="850" y="995.0"/>
  <rect fill="#909092" height="103.14" width="19.14" x="850" y="1000.0"/>
  <rect fill="#a5a5a7" height="8.14" width="19.14" x="850" y="1100.0"/>
  <rect fill="#909092" height="103.14" width="19.14" x="850" y="1105.0"/>
  <rect fill="#0f0f0f" height="80.0" opacity="0.6666666666666666" width="846.0" x="10.0" y="100.0"/>
  <text fill="#ffffff" style="font-size:50.0px;font-family:serif;font-weight:normal;text-anchor:middle;dominant-baseline:central" x="433.0" y="140.0">Way 1</text>
  <rect fill="#ceecb2" height="1203.14" width="153.14" x="866" y="0"/>
  <rect fill="#aca59b" height="1203.14" width="253.14" x="1016" y="0"/>
  <rect fill="#ceecb2" height="1203.14" width="153.14" x="1266" y="0"/>
  <rect fill="#0f0f0f" height="80.0" opacity="0.6666666666666666" width="530.0" x="876.0" y="100.0"/>
  <text fill="#ffffff" style="font-size:50.0px;font-family:serif;font-weight:normal;text-anchor:middle;dominant-baseline:central" x="1141.0" y="140.0">Way 2</text>
  <rect fill="#0f0f0f" height="80.0" opacity="0.6666666666666666" width="1396.0" x="10.0" y="10.0"/>
  <text fill="#ffffff" style="font-size:50.0px;font-family:serif;font-weight:bold;text-anchor:middle;dominant-baseline:central" x="708.0" y="50.0">strasse5_frei</text>
  <g transform="translate(1112.6666666666665, 190.0) scale(1 1) translate(0, 0) scale(0.3984725286148519 0.3984725286148519) ">
    <link xmlns="" type="text/css" rel="stylesheet" id="dark-mode-custom-link"/>
    <link xmlns="" type="text/css" rel="stylesheet" id="dark-mode-general-link"/>
    <style xmlns="" lang="en" type="text/css" id="dark-mode-custom-style"/>
    <style xmlns="" lang="en" type="text/css" id="dark-mode-native-style"/>
    <metadata xmlns:rdf="http://www.w3.org/1999/02/22-rdf-syntax-ns#" xmlns:cc="http://creativecommons.org/ns#" xmlns:dc="http://purl.org/dc/elements/1.1/" id="metadata5309">
      <rdf:RDF>
        <cc:Work rdf:about="">
          <dc:format>image/svg+xml</dc:format>
          <dc:type rdf:resource="http://purl.org/dc/dcmitype/StillImage"/>
          <dc:title/>
        </cc:Work>
      </rdf:RDF>
    </metadata>
    <defs id="defs5307"/>
    <g transform="matrix(1.25,0,0,-1.25,0,602.29999)" id="g5311">
      <g id="g5313">
        <path id="path5315" style="fill:#000000;fill-opacity:1;fill-rule:evenodd;stroke:none" d="m 410.824,410.777 c 31.278,-31.277 50.75,-64.996 62.203,-107.726 11.453,-42.77 11.453,-81.715 0,-124.484 C 461.578,135.836 442.086,102.098 410.789,70.801 379.512,39.524 345.789,20.047 303.039,8.578 260.293,-2.855 221.324,-2.871 178.578,8.598 135.844,20.051 102.125,39.524 70.848,70.801 39.551,102.098 20.059,135.836 8.59,178.586 c -11.453,42.731 -11.453,81.715 0,124.445 11.469,42.746 30.941,76.469 62.223,107.746 31.292,31.297 65.035,50.79 107.761,62.243 42.75,11.468 81.719,11.453 124.469,0.019 42.746,-11.472 76.484,-30.961 107.781,-62.262 z m -0.281,-0.281 C 379.289,441.75 345.629,461.199 302.938,472.652 260.246,484.07 221.367,484.09 178.68,472.633 136.004,461.195 102.348,441.75 71.094,410.496 39.859,379.258 20.426,345.617 8.973,302.93 -2.461,260.258 -2.461,221.363 8.977,178.692 20.43,136 39.879,102.34 71.133,71.086 102.367,39.852 136.012,20.422 178.68,8.985 c 42.691,-11.454 81.566,-11.434 124.258,-0.02 42.691,11.453 76.332,30.883 107.57,62.117 31.254,31.254 50.699,64.914 62.133,107.59 11.437,42.707 11.437,81.566 0,124.273 -11.43,42.672 -30.864,76.317 -62.098,107.551 z"/>
        <path id="path5317" style="fill:#ffffff;fill-opacity:1;fill-rule:evenodd;stroke:none" d="m 71.094,410.496 c 31.254,31.254 64.91,50.699 107.586,62.137 42.687,11.457 81.566,11.437 124.258,0.019 42.691,-11.457 76.351,-30.902 107.605,-62.156 31.238,-31.234 50.668,-64.879 62.098,-107.551 11.437,-42.707 11.437,-81.57 0.004,-124.277 C 461.207,135.996 441.762,102.336 410.508,71.082 379.27,39.848 345.629,20.418 302.941,8.965 260.25,-2.453 221.371,-2.469 178.68,8.985 136.012,20.422 102.371,39.848 71.133,71.086 39.879,102.34 20.434,136 8.977,178.692 c -11.438,42.671 -11.438,81.566 0,124.242 11.449,42.683 30.882,76.324 62.117,107.562 z"/>
        <path id="path5319" style="fill:#154889;fill-opacity:1;fill-rule:evenodd;stroke:none" d="m 79.035,402.594 c 29.77,29.769 61.867,48.32 102.555,59.195 40.683,10.914 77.777,10.914 118.445,0.02 40.684,-10.875 72.801,-29.442 102.59,-59.231 29.773,-29.773 48.281,-61.871 59.176,-102.535 10.894,-40.707 10.894,-77.762 0.004,-118.465 C 450.906,140.91 432.379,108.793 402.609,79.024 372.816,49.235 340.719,30.684 300.035,19.809 259.367,8.914 222.273,8.914 181.586,19.828 140.902,30.703 108.824,49.235 79.051,79.004 49.262,108.797 30.695,140.91 19.824,181.594 c -10.898,40.668 -10.898,77.762 0,118.43 10.871,40.683 29.422,72.781 59.211,102.57 z"/>
        <path id="path5321" style="fill:#ffffff;fill-opacity:1;fill-rule:nonzero;stroke:none" d="m 324.941,250.996 c 0,13.117 -10.644,23.774 -23.773,23.774 -13.133,0 -23.777,-10.657 -23.777,-23.774 0,-13.133 10.644,-23.785 23.777,-23.785 13.129,0 23.773,10.652 23.773,23.785 z M 209.48,390.231 c 0,-15 -12.171,-27.172 -27.171,-27.172 -15,0 -27.176,12.172 -27.176,27.172 0,15.004 12.176,27.164 27.176,27.164 15,0 27.171,-12.16 27.171,-27.164 z m -54.347,-138.579 4.769,4.684 c 1.301,1.285 2.028,3.024 2.028,4.844 l 0,50.945 c 0,1.867 -1.516,3.387 -3.399,3.387 -1.867,0 -3.398,-1.52 -3.398,-3.387 l 0,-60.473 z m -40.75,-78.761 c 3.906,26.004 15.191,50.351 32.523,70.133 -7.816,8.726 -12.148,20.023 -12.148,31.746 l 0,27.16 c 0,26.262 21.285,47.551 47.551,47.551 17.73,0 33.98,-9.868 42.171,-25.594 l 28.227,-54.215 c 4.078,-7.863 2.633,-17.461 -3.605,-23.75 l 28.046,-23.531 c 9.504,-7.985 22.344,-10.727 34.286,-7.317 l 5.023,1.446 c 5.195,1.465 10.777,-0.27 14.211,-4.446 l 34.551,-41.988 c 5.875,-7.137 4.965,-17.672 -2.063,-23.68 l -31.418,36.664 10.18,-50.945 -13.02,-1.918 7.829,-49.383 c 0.738,-4.636 -2.442,-8.98 -7.067,-9.718 -4.512,-0.704 -8.785,2.281 -9.66,6.757 l -9.633,49.59 -11.008,-1.629 -5.023,-53.906 c -0.426,-4.672 -4.566,-8.105 -9.238,-7.672 -4.551,0.426 -7.95,4.383 -7.68,8.946 l 6.77,116.675 -48.36,45.727 c -4.504,6.312 -4.164,14.867 0.813,20.805 l -30.11,57.851 c -0.523,0.981 -1.75,1.383 -2.742,0.86 -0.68,-0.352 -1.105,-1.055 -1.105,-1.809 l 0,-52.121 c 0,-1.82 0.726,-3.559 2.027,-4.844 l 6.031,-5.934 c 21.215,-20.875 35.071,-48.082 39.488,-77.511 l -135.847,0 z m 71.32,-6.797 20.379,0 0,-91.688 c 0,-5.632 -4.562,-10.195 -10.195,-10.195 -5.617,0 -10.184,4.563 -10.184,10.195 l 0,91.688 z m -27.172,0 20.379,0 0,-71.313 c 0,-5.629 -4.566,-10.195 -10.183,-10.195 -5.633,0 -10.196,4.566 -10.196,10.195"/>
      </g>
    </g>
  </g>
  <g transform="translate(1112.6666666666665, 440.0) scale(1 1) translate(0, 0) scale(0.4 0.4) ">
    <link xmlns="" type="text/css" rel="stylesheet" id="dark-mode-custom-link"/>
    <link xmlns="" type="text/css" rel="stylesheet" id="dark-mode-general-link"/>
    <style xmlns="" lang="en" type="text/css" id="dark-mode-custom-style"/>
    <style xmlns="" lang="en" type="text/css" id="dark-mode-native-style"/>
    <metadata xmlns:rdf="http://www.w3.org/1999/02/22-rdf-syntax-ns#" xmlns:cc="http://creativecommons.org/ns#" xmlns:dc="http://purl.org/dc/elements/1.1/" id="metadata8987">
      <rdf:RDF>
        <cc:Work rdf:about="">
          <dc:format>image/svg+xml</dc:format>
          <dc:type rdf:resource="http://purl.org/dc/dcmitype/StillImage"/>
          <dc:title/>
        </cc:Work>
      </rdf:RDF>
    </metadata>
    <defs id="defs8985"/>
    <g transform="matrix(1.25,0,0,-1.25,0,450.005)" id="g8989">
      <g id="g8991">
        <path id="path8993" style="fill:#ffffff;fill-opacity:1;fill-rule:nonzero;stroke:none" d="m 31.996,359.774 c -17.504,0 -31.754,-14.25 -31.754,-31.766 L 0.242,32 c 0,-17.508 14.25,-31.758 31.754,-31.758 l 416.008,0 c 17.516,0 31.766,14.25 31.766,31.758 l 0,296.008 c 0,17.516 -14.25,31.766 -31.766,31.766"/>
        <path id="path8995" style="fill:#000000;fill-opacity:1;fill-rule:nonzero;stroke:none" d="M 31.996,0.469 C 14.613,0.469 0.477,14.613 0.477,32 l 0,296.008 c 0,17.383 14.136,31.523 31.519,31.523 l 416.008,0 c 17.383,0 31.519,-14.14 31.519,-31.523 l 0,-296.008 c 0,-17.387 -14.136,-31.531 -31.519,-31.531 l -416.008,0 z m 416.008,359.535 -416.008,0 C 14.328,360.004 0,345.676 0,328.008 L 0,32 C 0,14.328 14.328,0 31.996,0 L 448.004,0 C 465.672,0 480,14.328 480,32 l 0,296.008 c 0,17.668 -14.328,31.996 -31.996,31.996"/>
        <path id="path8997" style="fill:#000000;fill-opacity:1;fill-rule:nonzero;stroke:none" d="m 31.996,352.012 c -13.25,0 -23.992,-10.746 -23.992,-24.004 L 8.004,32 C 8.004,18.75 18.746,7.996 31.996,7.996 l 416.008,0 c 13.25,0 24.004,10.754 24.004,24.004 l 0,296.008 c 0,13.258 -10.754,24.004 -24.004,24.004 l -416.008,0 z m 0,-12.008 416.008,0 c 6.629,0 12.004,-5.367 12.004,-11.996 l 0,-296.008 c 0,-6.633 -5.375,-11.996 -12.004,-11.996 l -416.008,0 C 25.379,20.004 20,25.367 20,32 l 0,296.008 c 0,6.629 5.379,11.996 11.996,11.996 z"/>
        <path id="path8999" style="fill:#000000;fill-opacity:1;fill-rule:nonzero;stroke:none" d="m 203.723,303.598 c -8.727,0 -16.45,-5.676 -19.032,-14.024 l -14.464,-46.707 c -23.207,4.707 -46.508,-7.586 -55.75,-29.394 -10.707,-25.328 1.136,-54.543 26.453,-65.262 25.328,-10.73 54.539,1.109 65.258,26.438 10.718,25.328 -1.122,54.539 -26.45,65.257 l 3.965,12.782 58.859,-65.289 c 1.899,-2.098 4.575,-3.309 7.407,-3.309 l 20.918,0 c 0.383,-1.848 0.871,-3.672 1.449,-5.465 8.531,-26.144 36.629,-40.434 62.773,-31.894 26.145,8.519 40.43,36.613 31.903,62.757 -8.52,26.145 -36.614,40.438 -62.758,31.914 l -14.453,32.325 3.746,9.961 11.199,0 0,9.953 -42.336,0 c -1.14,0 -2.156,-0.782 -2.414,-1.903 -0.328,-1.332 0.496,-2.683 1.836,-2.996 l 21.074,-5.054 -3.746,-9.961 -88.953,0 4,12.902 c 1.297,4.176 5.148,7.012 9.516,7.012 l 16.375,0 0,9.957 -16.375,0 z m -16.598,-39.828 88.309,0 -25.957,-69.176 -62.352,69.176 z m 97.703,-3.321 10.317,-23.062 c -15.61,-8.832 -25.262,-25.406 -25.262,-43.336 l -9.957,0 24.902,66.398 z M 160.574,233.895 c 2.215,-0.012 4.449,-0.211 6.688,-0.61 l -11.676,-37.754 c -0.805,-2.625 0.648,-5.414 3.285,-6.23 2.625,-0.805 5.402,0.66 6.215,3.285 l 11.691,37.754 c 20.043,-9.086 28.934,-32.684 19.848,-52.715 -9.074,-20.043 -32.687,-28.934 -52.73,-19.848 -20.036,9.075 -28.938,32.688 -19.848,52.735 6.574,14.496 21.015,23.488 36.527,23.383 z m 155.696,-0.133 c 18.453,1.601 36.117,-9.906 41.601,-28.356 6.262,-21.093 -5.754,-43.281 -26.844,-49.535 -21.093,-6.262 -43.273,5.75 -49.535,26.844 -0.129,0.457 -0.269,0.91 -0.387,1.375 l 41.067,0 c 2.762,0 4.973,2.246 4.973,4.988 0,0.699 -0.141,1.395 -0.426,2.028 l -18.383,41.144 c 2.637,0.777 5.297,1.285 7.934,1.512 z m -17.04,-5.516 15.25,-34.195 -34.64,0 c 0,14.012 7.363,26.992 19.39,34.195 z"/>
        <path id="path9001" style="fill:#000000;fill-opacity:1;fill-rule:nonzero;stroke:none" d="m 196.285,96.066 0,7.336 -9.5,0 0,6.868 c 0,3.48 1.695,5.546 5.27,5.546 l 4.23,0 0,8.184 -6.019,0 c -8.934,0 -13.071,-6.394 -13.071,-13.262 l 0,-7.336 -5.457,0 0,-7.336 5.457,0 0,-39.5 9.59,0 0,39.5 9.5,0 z"/>
        <path id="path9003" style="fill:#000000;fill-opacity:1;fill-rule:nonzero;stroke:none" d="m 240.031,100.301 c -3.289,3.289 -6.769,4.512 -11.379,4.512 -5.359,0 -10.254,-2.352 -12.699,-5.735 l 0,5.172 -9.402,0 0,-47.684 9.594,0 0,28.965 c 0,6.586 4.324,10.723 9.496,10.723 3.293,0 4.988,-1.035 7.148,-3.195 l 7.242,7.242 z"/>
        <path id="path9005" style="fill:#000000;fill-opacity:1;fill-rule:nonzero;stroke:none" d="m 285.695,77.633 0,4.23 c 0,13.547 -7.429,22.95 -20.222,22.95 -12.227,0 -20.219,-8.934 -20.219,-24.36 0,-18.152 9.496,-24.453 21.441,-24.453 8.371,0 12.981,2.539 17.871,7.43 l -6.113,5.738 c -3.387,-3.387 -6.207,-4.891 -11.57,-4.891 -7.805,0 -12.133,5.172 -12.133,13.356 l 30.945,0 z m -9.5,6.676 -21.445,0 c 0.098,2.918 0.285,4.328 1.223,6.492 1.507,3.574 4.988,6.019 9.5,6.019 4.515,0 7.902,-2.445 9.406,-6.019 0.941,-2.164 1.223,-3.574 1.316,-6.492 z"/>
        <path id="path9007" style="fill:#000000;fill-opacity:1;fill-rule:nonzero;stroke:none" d="m 308.273,113.656 0,10.157 -10.156,0 0,-10.157 10.156,0 z m -0.281,-57.09 0,47.684 -9.594,0 0,-47.684 9.594,0 z"/>
      </g>
    </g>
  </g>
</svg>
