<?xml version="1.0" encoding="utf-8" ?>
<svg baseProfile="full" height="1200" version="1.1" width="1551" xmlns="http://www.w3.org/2000/svg" xmlns:ev="http://www.w3.org/2001/xml-events" xmlns:xlink="http://www.w3.org/1999/xlink"><defs /><rect fill="#ceecb2" height="1203.14" width="153.14" x="0" y="0" /><rect fill="#909092" height="53.14" width="19.14" x="150" y="0" /><rect fill="#a5a5a7" height="8.14" width="19.14" x="150" y="50.0" /><rect fill="#909092" height="103.14" width="19.14" x="150" y="55.0" /><rect fill="#a5a5a7" height="8.14" width="19.14" x="150" y="155.0" /><rect fill="#909092" height="103.14" width="19.14" x="150" y="160.0" /><rect fill="#a5a5a7" height="8.14" width="19.14" x="150" y="260.0" /><rect fill="#909092" height="103.14" width="19.14" x="150" y="265.0" /><rect fill="#a5a5a7" height="8.14" width="19.14" x="150" y="365.0" /><rect fill="#909092" height="103.14" width="19.14" x="150" y="370.0" /><rect fill="#a5a5a7" height="8.14" width="19.14" x="150" y="470.0" /><rect fill="#909092" height="103.14" width="19.14" x="150" y="475.0" /><rect fill="#a5a5a7" height="8.14" width="19.14" x="150" y="575.0" /><rect fill="#909092" height="103.14" width="19.14" x="150" y="580.0" /><rect fill="#a5a5a7" height="8.14" width="19.14" x="150" y="680.0" /><rect fill="#909092" height="103.14" width="19.14" x="150" y="685.0" /><rect fill="#a5a5a7" height="8.14" width="19.14" x="150" y="785.0" /><rect fill="#909092" height="103.14" width="19.14" x="150" y="790.0" /><rect fill="#a5a5a7" height="8.14" width="19.14" x="150" y="890.0" /><rect fill="#909092" height="103.14" width="19.14" x="150" y="895.0" /><rect fill="#a5a5a7" height="8.14" width="19.14" x="150" y="995.0" /><rect fill="#909092" height="103.14" width="19.14" x="150" y="1000.0" /><rect fill="#a5a5a7" height="8.14" width="19.14" x="150" y="1100.0" /><rect fill="#909092" height="103.14" width="19.14" x="150" y="1105.0" /><rect fill="#68676e" height="1203.14" width="27.14" x="166" y="0" /><rect fill="#dce0df" height="1203.14" width="15.14" x="190" y="0" /><rect fill="#68676e" height="1203.14" width="303.14" x="202" y="0" /><rect fill="#68676e" height="1203.14" width="303.14" x="502" y="0" /><rect fill="#dce0df" height="53.14" width="15.14" x="802" y="0" /><rect fill="#68676e" height="103.14" width="15.14" x="802" y="50.0" /><rect fill="#dce0df" height="103.14" width="15.14" x="802" y="150.0" /><rect fill="#68676e" height="103.14" width="15.14" x="802" y="250.0" /><rect fill="#dce0df" height="103.14" width="15.14" x="802" y="350.0" /><rect fill="#68676e" height="103.14" width="15.14" x="802" y="450.0" /><rect fill="#dce0df" height="103.14" width="15.14" x="802" y="550.0" /><rect fill="#68676e" height="103.14" width="15.14" x="802" y="650.0" /><rect fill="#dce0df" height="103.14" width="15.14" x="802" y="750.0" /><rect fill="#68676e" height="103.14" width="15.14" x="802" y="850.0" /><rect fill="#dce0df" height="103.14" width="15.14" x="802" y="950.0" /><rect fill="#68676e" height="103.14" width="15.14" x="802" y="1050.0" /><rect fill="#dce0df" height="103.14" width="15.14" x="802" y="1150.0" /><rect fill="#68676e" height="1203.14" width="8.14" x="814" y="0" /><rect fill="#68676e" height="1203.14" width="128.14" x="819" y="0" /><rect fill="#68676e" height="1203.14" width="8.14" x="944" y="0" /><rect fill="#dce0df" height="53.14" width="15.14" x="949" y="0" /><rect fill="#68676e" height="103.14" width="15.14" x="949" y="50.0" /><rect fill="#dce0df" height="103.14" width="15.14" x="949" y="150.0" /><rect fill="#68676e" height="103.14" width="15.14" x="949" y="250.0" /><rect fill="#dce0df" height="103.14" width="15.14" x="949" y="350.0" /><rect fill="#68676e" height="103.14" width="15.14" x="949" y="450.0" /><rect fill="#dce0df" height="103.14" width="15.14" x="949" y="550.0" /><rect fill="#68676e" height="103.14" width="15.14" x="949" y="650.0" /><rect fill="#dce0df" height="103.14" width="15.14" x="949" y="750.0" /><rect fill="#68676e" height="103.14" width="15.14" x="949" y="850.0" /><rect fill="#dce0df" height="103.14" width="15.14" x="949" y="950.0" /><rect fill="#68676e" height="103.14" width="15.14" x="949" y="1050.0" /><rect fill="#dce0df" height="103.14" width="15.14" x="949" y="1150.0" /><rect fill="#68676e" height="1203.14" width="27.14" x="961" y="0" /><rect fill="#909092" height="53.14" width="19.14" x="985" y="0" /><rect fill="#a5a5a7" height="8.14" width="19.14" x="985" y="50.0" /><rect fill="#909092" height="103.14" width="19.14" x="985" y="55.0" /><rect fill="#a5a5a7" height="8.14" width="19.14" x="985" y="155.0" /><rect fill="#909092" height="103.14" width="19.14" x="985" y="160.0" /><rect fill="#a5a5a7" height="8.14" width="19.14" x="985" y="260.0" /><rect fill="#909092" height="103.14" width="19.14" x="985" y="265.0" /><rect fill="#a5a5a7" height="8.14" width="19.14" x="985" y="365.0" /><rect fill="#909092" height="103.14" width="19.14" x="985" y="370.0" /><rect fill="#a5a5a7" height="8.14" width="19.14" x="985" y="470.0" /><rect fill="#909092" height="103.14" width="19.14" x="985" y="475.0" /><rect fill="#a5a5a7" height="8.14" width="19.14" x="985" y="575.0" /><rect fill="#909092" height="103.14" width="19.14" x="985" y="580.0" /><rect fill="#a5a5a7" height="8.14" width="19.14" x="985" y="680.0" /><rect fill="#909092" height="103.14" width="19.14" x="985" y="685.0" /><rect fill="#a5a5a7" height="8.14" width="19.14" x="985" y="785.0" /><rect fill="#909092" height="103.14" width="19.14" x="985" y="790.0" /><rect fill="#a5a5a7" height="8.14" width="19.14" x="985" y="890.0" /><rect fill="#909092" height="103.14" width="19.14" x="985" y="895.0" /><rect fill="#a5a5a7" height="8.14" width="19.14" x="985" y="995.0" /><rect fill="#909092" height="103.14" width="19.14" x="985" y="1000.0" /><rect fill="#a5a5a7" height="8.14" width="19.14" x="985" y="1100.0" /><rect fill="#909092" height="103.14" width="19.14" x="985" y="1105.0" /><rect fill="#ceecb2" height="1203.14" width="153.14" x="1001" y="0" /><rect fill="#0f0f0f" height="80.0" opacity="0.6666666666666666" width="1131.0" x="10.0" y="100.0" /><text fill="#ffffff" style="font-size:50.0px;font-family:serif;font-weight:normal;text-anchor:middle;dominant-baseline:central" x="575.5" y="140.0">Way 1</text><rect fill="#aca59b" height="1203.14" width="253.14" x="1151" y="0" /><rect fill="#ceecb2" height="1203.14" width="153.14" x="1401" y="0" /><rect fill="#0f0f0f" height="80.0" opacity="0.6666666666666666" width="380.0" x="1161.0" y="100.0" /><text fill="#ffffff" style="font-size:50.0px;font-family:serif;font-weight:normal;text-anchor:middle;dominant-baseline:central" x="1351.0" y="140.0">Way 2</text><rect fill="#0f0f0f" height="80.0" opacity="0.6666666666666666" width="1531.0" x="10.0" y="10.0" /><text fill="#ffffff" style="font-size:50.0px;font-family:serif;font-weight:bold;text-anchor:middle;dominant-baseline:central" x="775.5" y="50.0">strasse3.1</text></svg>